<svg width="44" height="44" viewBox="0 0 44 44" fill="none" xmlns="http://www.w3.org/2000/svg">
<path d="M7.33337 7.33333H11.2718C12.0218 7.33333 12.3967 7.33333 12.668 7.54513C12.9393 7.75692 13.0302 8.1207 13.2121 8.84826L13.9092 11.6368C14.273 13.0919 14.4549 13.8195 14.9974 14.2431C15.54 14.6667 16.2899 14.6667 17.7898 14.6667H18.3334" stroke="#282828" stroke-width="2" stroke-linecap="round"/>
<path d="M33 31.1667H13.7749C12.5086 31.1667 11.8755 31.1667 11.5762 30.7514C11.2769 30.3361 11.4771 29.7355 11.8775 28.5342L11.9216 28.4018C12.3617 27.0817 12.5817 26.4217 13.1054 26.0442C13.6292 25.6667 14.3249 25.6667 15.7164 25.6667H25.6667" stroke="#282828" stroke-width="2" stroke-linecap="round" stroke-linejoin="round"/>
<path d="M29.9306 25.6667H16.361C15.3833 25.6667 14.5489 24.9598 14.3882 23.9955L13.1245 16.4133C12.9721 15.499 13.6772 14.6667 14.6041 14.6667H35.0487C35.7921 14.6667 36.2756 15.449 35.9431 16.1139L31.7195 24.5611C31.3807 25.2387 30.6882 25.6667 29.9306 25.6667Z" stroke="#282828" stroke-width="2" stroke-linecap="round"/>
<circle cx="31.1667" cy="36.6667" r="1.83333" fill="#282828"/>
<circle cx="16.5" cy="36.6667" r="1.83333" fill="#282828"/>
</svg>
