<svg width="44" height="44" viewBox="0 0 44 44" fill="none" xmlns="http://www.w3.org/2000/svg">
<path d="M8.15961 25.4984L21.3154 37.8568C21.6398 38.1616 21.802 38.314 22 38.314C22.1981 38.314 22.3603 38.1616 22.6847 37.8568L35.8405 25.4984L35.8406 25.4983C36.1758 25.1833 36.3435 25.0259 36.4825 24.8832C39.5107 21.775 39.8899 16.9486 37.3841 13.4057C37.2691 13.243 37.1281 13.0613 36.846 12.6978L36.2789 11.9668C32.6705 7.31607 25.4277 8.09602 22.8923 13.4084C22.5341 14.1588 21.466 14.1588 21.1078 13.4084C18.5724 8.09603 11.3295 7.31606 7.72121 11.9668L7.15405 12.6978L7.15403 12.6978C6.87202 13.0613 6.73101 13.243 6.61599 13.4057C4.11019 16.9486 4.48934 21.775 7.51762 24.8832C7.65662 25.0259 7.82427 25.1834 8.15955 25.4983L8.15961 25.4984Z" stroke="#282828" stroke-width="2"/>
</svg>
