<svg width="266" height="43" viewBox="0 0 266 43" fill="none" xmlns="http://www.w3.org/2000/svg">
<g filter="url(#filter0_d_1_29)">
<path d="M15.34 34.104C13.268 34.104 11.238 33.712 9.25 32.928C7.262 32.144 5.512 31.024 4 29.568L7.57 25.284C8.662 26.32 9.908 27.16 11.308 27.804C12.736 28.42 14.122 28.728 15.466 28.728C17.09 28.728 18.322 28.406 19.162 27.762C20.002 27.118 20.422 26.25 20.422 25.158C20.422 24.374 20.212 23.758 19.792 23.31C19.4 22.834 18.854 22.414 18.154 22.05C17.454 21.686 16.642 21.322 15.718 20.958L11.602 19.152C10.566 18.732 9.558 18.172 8.578 17.472C7.626 16.744 6.828 15.834 6.184 14.742C5.568 13.65 5.26 12.348 5.26 10.836C5.26 9.128 5.722 7.602 6.646 6.258C7.57 4.914 8.844 3.85 10.468 3.066C12.092 2.254 13.94 1.848 16.012 1.848C17.86 1.848 19.638 2.198 21.346 2.898C23.054 3.598 24.538 4.592 25.798 5.88L22.648 9.744C21.668 8.932 20.646 8.302 19.582 7.854C18.518 7.406 17.328 7.182 16.012 7.182C14.668 7.182 13.59 7.476 12.778 8.064C11.994 8.624 11.602 9.422 11.602 10.458C11.602 11.186 11.826 11.788 12.274 12.264C12.722 12.74 13.31 13.16 14.038 13.524C14.766 13.86 15.564 14.21 16.432 14.574L20.506 16.212C21.766 16.716 22.858 17.346 23.782 18.102C24.734 18.858 25.462 19.768 25.966 20.832C26.498 21.896 26.764 23.184 26.764 24.696C26.764 26.376 26.302 27.93 25.378 29.358C24.482 30.786 23.18 31.934 21.472 32.802C19.792 33.67 17.748 34.104 15.34 34.104ZM30.923 33.516V1.07288e-06H37.097V8.442L36.803 12.852C37.727 11.956 38.791 11.158 39.995 10.458C41.199 9.758 42.599 9.408 44.195 9.408C46.743 9.408 48.591 10.248 49.739 11.928C50.887 13.58 51.461 15.89 51.461 18.858V33.516H45.287V19.614C45.287 17.794 45.021 16.52 44.489 15.792C43.985 15.064 43.145 14.7 41.969 14.7C41.017 14.7 40.177 14.924 39.449 15.372C38.749 15.82 37.965 16.478 37.097 17.346V33.516H30.923ZM66.7762 34.104C64.8162 34.104 62.9682 33.614 61.2322 32.634C59.5242 31.654 58.1382 30.254 57.0742 28.434C56.0102 26.586 55.4782 24.36 55.4782 21.756C55.4782 19.152 56.0102 16.94 57.0742 15.12C58.1382 13.272 59.5242 11.858 61.2322 10.878C62.9682 9.898 64.8162 9.408 66.7762 9.408C68.2602 9.408 69.6742 9.688 71.0182 10.248C72.3622 10.808 73.5662 11.62 74.6302 12.684C75.6942 13.72 76.5342 15.008 77.1502 16.548C77.7662 18.06 78.0742 19.796 78.0742 21.756C78.0742 24.36 77.5422 26.586 76.4782 28.434C75.4142 30.254 74.0142 31.654 72.2782 32.634C70.5702 33.614 68.7362 34.104 66.7762 34.104ZM66.7762 29.064C67.8402 29.064 68.7362 28.77 69.4642 28.182C70.2202 27.566 70.7802 26.712 71.1442 25.62C71.5362 24.528 71.7322 23.24 71.7322 21.756C71.7322 20.272 71.5362 18.984 71.1442 17.892C70.7802 16.8 70.2202 15.96 69.4642 15.372C68.7362 14.756 67.8402 14.448 66.7762 14.448C65.7122 14.448 64.8022 14.756 64.0462 15.372C63.3182 15.96 62.7582 16.8 62.3662 17.892C62.0022 18.984 61.8202 20.272 61.8202 21.756C61.8202 23.24 62.0022 24.528 62.3662 25.62C62.7582 26.712 63.3182 27.566 64.0462 28.182C64.8022 28.77 65.7122 29.064 66.7762 29.064ZM92.6472 34.104C90.4632 34.104 88.4892 33.614 86.7252 32.634C84.9612 31.654 83.5472 30.24 82.4832 28.392C81.4472 26.544 80.9292 24.332 80.9292 21.756C80.9292 19.852 81.2232 18.144 81.8112 16.632C82.4272 15.12 83.2532 13.832 84.2892 12.768C85.3532 11.676 86.5292 10.85 87.8172 10.29C89.1332 9.702 90.4912 9.408 91.8912 9.408C94.0472 9.408 95.8532 9.898 97.3092 10.878C98.7652 11.83 99.8572 13.16 100.585 14.868C101.341 16.548 101.719 18.48 101.719 20.664C101.719 21.224 101.691 21.77 101.635 22.302C101.579 22.806 101.509 23.212 101.425 23.52H86.9352C87.1032 24.78 87.4812 25.844 88.0692 26.712C88.6572 27.58 89.4132 28.238 90.3372 28.686C91.2612 29.106 92.3112 29.316 93.4872 29.316C94.4392 29.316 95.3352 29.19 96.1752 28.938C97.0152 28.658 97.8692 28.252 98.7372 27.72L100.837 31.5C99.6892 32.284 98.4012 32.914 96.9732 33.39C95.5452 33.866 94.1032 34.104 92.6472 34.104ZM86.8092 19.362H96.4272C96.4272 17.794 96.0632 16.548 95.3352 15.624C94.6352 14.672 93.5152 14.196 91.9752 14.196C91.1632 14.196 90.3932 14.392 89.6652 14.784C88.9372 15.148 88.3212 15.722 87.8172 16.506C87.3132 17.262 86.9772 18.214 86.8092 19.362ZM112.684 34.104C111.116 34.104 109.52 33.796 107.896 33.18C106.3 32.564 104.914 31.78 103.738 30.828L106.552 26.922C107.588 27.706 108.61 28.336 109.618 28.812C110.654 29.26 111.732 29.484 112.852 29.484C114.028 29.484 114.882 29.26 115.414 28.812C115.974 28.336 116.254 27.734 116.254 27.006C116.254 26.418 116.016 25.928 115.54 25.536C115.064 25.116 114.448 24.752 113.692 24.444C112.936 24.108 112.152 23.786 111.34 23.478C110.36 23.086 109.38 22.61 108.4 22.05C107.448 21.49 106.65 20.776 106.006 19.908C105.362 19.012 105.04 17.906 105.04 16.59C105.04 15.19 105.404 13.958 106.132 12.894C106.86 11.802 107.868 10.948 109.156 10.332C110.472 9.716 112.026 9.408 113.818 9.408C115.526 9.408 117.038 9.702 118.354 10.29C119.698 10.878 120.846 11.55 121.798 12.306L119.026 16.044C118.186 15.428 117.346 14.938 116.506 14.574C115.694 14.21 114.854 14.028 113.986 14.028C112.894 14.028 112.096 14.238 111.592 14.658C111.088 15.078 110.836 15.624 110.836 16.296C110.836 16.856 111.046 17.332 111.466 17.724C111.886 18.088 112.46 18.41 113.188 18.69C113.916 18.97 114.686 19.264 115.498 19.572C116.282 19.852 117.052 20.188 117.808 20.58C118.592 20.944 119.306 21.392 119.95 21.924C120.594 22.456 121.098 23.114 121.462 23.898C121.854 24.654 122.05 25.578 122.05 26.67C122.05 28.042 121.686 29.302 120.958 30.45C120.258 31.57 119.208 32.466 117.808 33.138C116.436 33.782 114.728 34.104 112.684 34.104ZM135.098 33.516V2.394H143.624C146.816 2.394 149.546 2.954 151.814 4.074C154.11 5.194 155.874 6.888 157.106 9.156C158.366 11.424 158.996 14.308 158.996 17.808C158.996 21.308 158.38 24.22 157.148 26.544C155.916 28.868 154.18 30.618 151.94 31.794C149.7 32.942 147.04 33.516 143.96 33.516H135.098ZM141.314 28.476H143.204C145.164 28.476 146.844 28.126 148.244 27.426C149.672 26.698 150.764 25.55 151.52 23.982C152.276 22.386 152.654 20.328 152.654 17.808C152.654 15.288 152.276 13.272 151.52 11.76C150.764 10.22 149.672 9.114 148.244 8.442C146.844 7.742 145.164 7.392 143.204 7.392H141.314V28.476ZM163.736 33.516V9.996H168.776L169.238 14.154H169.364C170.232 12.614 171.254 11.438 172.43 10.626C173.606 9.814 174.81 9.408 176.042 9.408C176.714 9.408 177.246 9.464 177.638 9.576C178.058 9.66 178.436 9.772 178.772 9.912L177.764 15.246C177.316 15.134 176.91 15.05 176.546 14.994C176.21 14.91 175.776 14.868 175.244 14.868C174.348 14.868 173.396 15.218 172.388 15.918C171.408 16.618 170.582 17.808 169.91 19.488V33.516H163.736ZM190.781 34.104C188.597 34.104 186.623 33.614 184.859 32.634C183.095 31.654 181.681 30.24 180.617 28.392C179.581 26.544 179.063 24.332 179.063 21.756C179.063 19.852 179.357 18.144 179.945 16.632C180.561 15.12 181.387 13.832 182.423 12.768C183.487 11.676 184.663 10.85 185.951 10.29C187.267 9.702 188.625 9.408 190.025 9.408C192.181 9.408 193.987 9.898 195.443 10.878C196.899 11.83 197.991 13.16 198.719 14.868C199.475 16.548 199.853 18.48 199.853 20.664C199.853 21.224 199.825 21.77 199.769 22.302C199.713 22.806 199.643 23.212 199.559 23.52H185.069C185.237 24.78 185.615 25.844 186.203 26.712C186.791 27.58 187.547 28.238 188.471 28.686C189.395 29.106 190.445 29.316 191.621 29.316C192.573 29.316 193.469 29.19 194.309 28.938C195.149 28.658 196.003 28.252 196.871 27.72L198.971 31.5C197.823 32.284 196.535 32.914 195.107 33.39C193.679 33.866 192.237 34.104 190.781 34.104ZM184.943 19.362H194.561C194.561 17.794 194.197 16.548 193.469 15.624C192.769 14.672 191.649 14.196 190.109 14.196C189.297 14.196 188.527 14.392 187.799 14.784C187.071 15.148 186.455 15.722 185.951 16.506C185.447 17.262 185.111 18.214 184.943 19.362ZM209.031 34.104C207.659 34.104 206.441 33.81 205.377 33.222C204.341 32.606 203.529 31.766 202.941 30.702C202.381 29.638 202.101 28.434 202.101 27.09C202.101 24.598 203.179 22.666 205.335 21.294C207.491 19.894 210.921 18.942 215.625 18.438C215.597 17.654 215.457 16.968 215.205 16.38C214.953 15.764 214.533 15.274 213.945 14.91C213.385 14.546 212.615 14.364 211.635 14.364C210.543 14.364 209.465 14.574 208.401 14.994C207.337 15.414 206.259 15.96 205.167 16.632L202.983 12.516C203.907 11.928 204.887 11.41 205.923 10.962C206.959 10.514 208.051 10.15 209.199 9.87C210.347 9.562 211.537 9.408 212.769 9.408C214.757 9.408 216.423 9.8 217.767 10.584C219.111 11.368 220.119 12.53 220.791 14.07C221.463 15.61 221.799 17.514 221.799 19.782V33.516H216.759L216.339 30.996H216.129C215.121 31.892 214.029 32.634 212.853 33.222C211.677 33.81 210.403 34.104 209.031 34.104ZM211.089 29.274C211.957 29.274 212.741 29.078 213.441 28.686C214.169 28.266 214.897 27.692 215.625 26.964V22.26C213.721 22.484 212.209 22.806 211.089 23.226C209.969 23.646 209.171 24.15 208.695 24.738C208.219 25.298 207.981 25.928 207.981 26.628C207.981 27.552 208.261 28.224 208.821 28.644C209.409 29.064 210.165 29.274 211.089 29.274ZM227.252 33.516V9.996H232.292L232.754 13.146H232.88C233.86 12.138 234.924 11.27 236.072 10.542C237.22 9.786 238.564 9.408 240.104 9.408C241.784 9.408 243.128 9.772 244.136 10.5C245.172 11.2 245.97 12.208 246.53 13.524C247.65 12.376 248.798 11.41 249.974 10.626C251.178 9.814 252.536 9.408 254.048 9.408C256.568 9.408 258.402 10.248 259.55 11.928C260.726 13.58 261.314 15.89 261.314 18.858V33.516H255.182V19.614C255.182 17.794 254.916 16.52 254.384 15.792C253.852 15.064 253.026 14.7 251.906 14.7C251.234 14.7 250.52 14.924 249.764 15.372C249.036 15.792 248.238 16.45 247.37 17.346V33.516H241.196V19.614C241.196 17.794 240.93 16.52 240.398 15.792C239.866 15.064 239.04 14.7 237.92 14.7C237.276 14.7 236.562 14.924 235.778 15.372C235.022 15.792 234.238 16.45 233.426 17.346V33.516H227.252Z" fill="#F28080"/>
</g>
<defs>
<filter id="filter0_d_1_29" x="0" y="0" width="265.314" height="42.104" filterUnits="userSpaceOnUse" color-interpolation-filters="sRGB">
<feFlood flood-opacity="0" result="BackgroundImageFix"/>
<feColorMatrix in="SourceAlpha" type="matrix" values="0 0 0 0 0 0 0 0 0 0 0 0 0 0 0 0 0 0 127 0" result="hardAlpha"/>
<feOffset dy="4"/>
<feGaussianBlur stdDeviation="2"/>
<feComposite in2="hardAlpha" operator="out"/>
<feColorMatrix type="matrix" values="0 0 0 0 0 0 0 0 0 0 0 0 0 0 0 0 0 0 0.25 0"/>
<feBlend mode="normal" in2="BackgroundImageFix" result="effect1_dropShadow_1_29"/>
<feBlend mode="normal" in="SourceGraphic" in2="effect1_dropShadow_1_29" result="shape"/>
</filter>
</defs>
</svg>
